# xmcd
#
# Track frame offsets:
#	150
#	13882
#	26680
#	47421
#	71023
#	84528
#	110656
#	147036
#	187075
#
# Disc length: 2857 seconds
#
# Revision: 3
# Processed by: cddbd v1.5.1PL2 Copyright (c) Steve Scherf et al.
# Submitted via: CDmax 2.0
#
DISCID=7a0b2709
DTITLE=Fitzgerald, Ella - At The Montreux Jazz Festival 1975
DYEAR=1975
DGENRE=Jazz
TTITLE0=Caravan
TTITLE1=Satin Doll
TTITLE2=Teach Me Tonight
TTITLE3=Wave
TTITLE4=It's All Right With Me
TTITLE5=Let's Do It
TTITLE6=How High The Moon
TTITLE7=The Girl From Ipanema
TTITLE8='Tain't Nobody's Bizness If I Do
EXTD=YEAR: 1975\nElla Fitzgerald - vocals\nTommy Flanagan - piano\nKeter Bett
EXTD=s - bass\nBobby Durham - drums\n\nProduced by Norman Grantz\nRecorded a
EXTD=t the Montreux Jazz Festival - July 17, 1975
EXTT0=
EXTT1=
EXTT2=
EXTT3=
EXTT4=
EXTT5=
EXTT6=
EXTT7=
EXTT8=
PLAYORDER=
